<svg viewBox="0 0 22 22" fill="none" xmlns="http://www.w3.org/2000/svg">
<path d="M11 21C16.5228 21 21 16.5228 21 11C21 5.47715 16.5228 1 11 1C5.47715 1 1 5.47715 1 11C1 16.5228 5.47715 21 11 21Z" fill="black" stroke="black" stroke-width="1.5" stroke-linecap="round" stroke-linejoin="round"/>
<path d="M13.3334 18V16.137C13.3584 15.8275 13.3155 15.5163 13.2074 15.2242C13.0994 14.9321 12.9287 14.6657 12.7068 14.4428C14.8001 14.2156 17.0001 13.4431 17.0001 9.8989C16.9999 8.99256 16.6419 8.12101 16.0001 7.46461C16.304 6.67171 16.2825 5.79528 15.9401 5.01739C15.9401 5.01739 15.1534 4.7902 13.3334 5.97811C11.8054 5.57488 10.1948 5.57488 8.66672 5.97811C6.84672 4.7902 6.06005 5.01739 6.06005 5.01739C5.71763 5.79528 5.69615 6.67171 6.00005 7.46461C5.35347 8.12588 4.99507 9.0053 5.00005 9.9183C5.00005 13.4366 7.20005 14.2091 9.29336 14.4622C9.07406 14.6829 8.90489 14.9461 8.79692 15.2347C8.68895 15.5232 8.64459 15.8306 8.66672 16.137V18" stroke="white" stroke-width="1.5" stroke-linecap="round" stroke-linejoin="round"/>
<path d="M8.66667 16.7018C6.66667 17.3335 5 16.7018 4 14.7544" stroke="white" stroke-width="1.5" stroke-linecap="round" stroke-linejoin="round"/>
</svg>
